<svg width="411" height="419" viewBox="0 0 411 419" fill="none" xmlns="http://www.w3.org/2000/svg">
<path d="M211.619 0.260614L107.921 23.6794C105.142 24.3103 102.727 26.0216 101.204 28.438C99.6807 30.8543 99.1747 33.7785 99.7967 36.5688L128.232 163.44L250.072 135.924C251.073 135.702 251.989 135.194 252.71 134.463L224.46 8.41551C223.831 5.62657 222.127 3.20173 219.719 1.67293C217.312 0.144134 214.399 -0.363769 211.619 0.260614Z" fill="#E6E6E6"/>
<path d="M173.951 17.7296L117.122 30.5637C114.592 31.1376 112.392 32.6954 111.004 34.8954C109.617 37.0954 109.156 39.7579 109.721 42.2989L136.456 161.582L244.667 137.144L225.197 50.2755C222.689 39.1449 215.885 29.4674 206.278 23.3661C196.671 17.2647 185.045 15.2376 173.951 17.7296Z" fill="white"/>
<path d="M223.857 130.714L152.517 146.825C152.211 146.894 151.922 147.022 151.665 147.203C151.409 147.384 151.191 147.614 151.023 147.879C150.855 148.145 150.741 148.441 150.687 148.751C150.634 149.061 150.642 149.379 150.71 149.685C150.779 149.992 150.908 150.283 151.088 150.54C151.269 150.797 151.498 151.015 151.763 151.183C152.028 151.351 152.324 151.465 152.633 151.518C152.941 151.571 153.258 151.563 153.563 151.493L224.904 135.382C225.21 135.314 225.499 135.186 225.756 135.005C226.013 134.824 226.231 134.594 226.399 134.329C226.567 134.063 226.681 133.766 226.735 133.456C226.789 133.146 226.781 132.829 226.712 132.522C226.643 132.215 226.515 131.924 226.334 131.667C226.153 131.41 225.924 131.191 225.658 131.023C225.393 130.855 225.098 130.742 224.789 130.689C224.48 130.635 224.163 130.644 223.857 130.714Z" fill="#E4E4E4"/>
<path d="M221.789 121.484L150.448 137.595C149.831 137.735 149.294 138.115 148.956 138.651C148.617 139.188 148.505 139.838 148.644 140.457C148.783 141.077 149.161 141.616 149.696 141.956C150.231 142.295 150.878 142.408 151.495 142.268L222.836 126.157C223.142 126.088 223.431 125.959 223.687 125.778C223.943 125.597 224.161 125.367 224.328 125.101C224.496 124.835 224.609 124.539 224.663 124.229C224.716 123.919 224.708 123.602 224.64 123.295C224.571 122.988 224.443 122.698 224.262 122.441C224.082 122.184 223.852 121.965 223.588 121.797C223.323 121.629 223.028 121.515 222.719 121.461C222.41 121.407 222.094 121.415 221.788 121.484H221.789Z" fill="#E4E4E4"/>
<path d="M179.305 121.382L148.38 128.366C147.763 128.505 147.227 128.885 146.889 129.421C146.551 129.957 146.439 130.606 146.578 131.225C146.716 131.844 147.094 132.382 147.629 132.722C148.163 133.061 148.809 133.173 149.426 133.034L180.351 126.05C180.657 125.982 180.947 125.854 181.203 125.673C181.46 125.492 181.678 125.262 181.846 124.997C182.014 124.731 182.129 124.434 182.182 124.124C182.236 123.814 182.228 123.497 182.159 123.19C182.09 122.882 181.962 122.592 181.781 122.335C181.6 122.078 181.371 121.859 181.106 121.691C180.84 121.523 180.545 121.41 180.236 121.356C179.927 121.303 179.61 121.312 179.305 121.382Z" fill="#E4E4E4"/>
<path d="M215.388 92.9256L144.048 109.037C143.742 109.106 143.453 109.235 143.197 109.416C142.941 109.597 142.723 109.827 142.555 110.093C142.217 110.63 142.105 111.279 142.244 111.899C142.383 112.519 142.761 113.057 143.296 113.397C143.83 113.737 144.478 113.849 145.095 113.71L216.435 97.5984C216.741 97.5294 217.03 97.4006 217.286 97.2194C217.542 97.0382 217.76 96.8082 217.928 96.5424C218.095 96.2766 218.209 95.9804 218.263 95.6705C218.316 95.3606 218.308 95.0432 218.239 94.7363C218.171 94.4295 218.042 94.1393 217.862 93.8822C217.681 93.6252 217.452 93.4064 217.187 93.2382C216.923 93.0701 216.627 92.9559 216.319 92.9023C216.01 92.8486 215.694 92.8566 215.388 92.9256Z" fill="#E4E4E4"/>
<path d="M213.32 83.6995L141.98 99.8107C141.674 99.8791 141.385 100.007 141.128 100.188C140.872 100.369 140.654 100.599 140.486 100.865C140.318 101.13 140.204 101.427 140.15 101.737C140.097 102.046 140.105 102.364 140.173 102.671C140.242 102.978 140.371 103.268 140.551 103.525C140.732 103.782 140.961 104.001 141.226 104.169C141.491 104.337 141.787 104.45 142.095 104.504C142.404 104.557 142.721 104.548 143.026 104.479L214.367 88.3675C214.672 88.2988 214.961 88.1703 215.217 87.9894C215.474 87.8085 215.692 87.5786 215.859 87.3131C216.027 87.0475 216.14 86.7514 216.194 86.4416C216.247 86.1319 216.24 85.8146 216.171 85.5079C216.102 85.2012 215.974 84.9111 215.793 84.6542C215.613 84.3973 215.384 84.1786 215.119 84.0107C214.854 83.8427 214.559 83.7288 214.251 83.6754C213.942 83.622 213.626 83.6302 213.32 83.6995Z" fill="#E4E4E4"/>
<path d="M170.836 83.5955L139.911 90.5795C139.605 90.6485 139.316 90.7773 139.06 90.9585C138.804 91.1397 138.586 91.3697 138.418 91.6355C138.251 91.9012 138.137 92.1975 138.084 92.5074C138.03 92.8173 138.038 93.1347 138.107 93.4415C138.176 93.7483 138.304 94.0386 138.485 94.2956C138.665 94.5527 138.894 94.7715 139.159 94.9397C139.424 95.1078 139.719 95.222 140.028 95.2756C140.336 95.3292 140.653 95.3213 140.958 95.2523L171.883 88.2683C172.189 88.1993 172.478 88.0705 172.734 87.8893C172.99 87.7081 173.208 87.4781 173.376 87.2123C173.543 86.9465 173.657 86.6503 173.71 86.3404C173.764 86.0305 173.756 85.7131 173.687 85.4063C173.618 85.0994 173.49 84.8092 173.31 84.5522C173.129 84.2951 172.9 84.0763 172.635 83.9081C172.37 83.74 172.075 83.6258 171.766 83.5722C171.458 83.5186 171.141 83.5265 170.836 83.5955Z" fill="#E4E4E4"/>
<path d="M206.918 55.1424L135.578 71.2536C134.961 71.393 134.424 71.7729 134.085 72.3096C133.747 72.8464 133.635 73.496 133.774 74.1157C133.913 74.7353 134.291 75.2742 134.826 75.6138C135.361 75.9534 136.008 76.0658 136.625 75.9264L207.966 59.8152C208.271 59.7462 208.561 59.6174 208.817 59.4362C209.073 59.255 209.291 59.025 209.458 58.7592C209.626 58.4934 209.739 58.1971 209.793 57.8873C209.846 57.5774 209.838 57.26 209.77 56.9531C209.701 56.6463 209.573 56.3561 209.392 56.0991C209.212 55.842 208.982 55.6231 208.718 55.455C208.453 55.2869 208.158 55.1727 207.849 55.1191C207.54 55.0654 207.224 55.0734 206.918 55.1424Z" fill="#E6E6E6"/>
<path d="M204.851 45.9119L133.511 62.0231C133.205 62.0922 132.916 62.221 132.66 62.4021C132.404 62.5833 132.186 62.8134 132.018 63.0792C131.68 63.6159 131.568 64.2655 131.707 64.8852C131.846 65.5049 132.224 66.0438 132.759 66.3833C133.293 66.7229 133.941 66.8354 134.558 66.6959L205.898 50.5848C206.204 50.5157 206.493 50.3869 206.749 50.2058C207.005 50.0246 207.223 49.7945 207.391 49.5287C207.558 49.263 207.672 48.9667 207.725 48.6568C207.779 48.3469 207.771 48.0295 207.702 47.7227C207.633 47.4159 207.505 47.1256 207.325 46.8686C207.144 46.6115 206.915 46.3927 206.65 46.2245C206.385 46.0564 206.09 45.9422 205.782 45.8886C205.473 45.835 205.157 45.8429 204.851 45.9119Z" fill="#E6E6E6"/>
<path d="M162.366 45.8104L131.441 52.7943C130.824 52.9337 130.287 53.3136 129.949 53.8503C129.61 54.387 129.498 55.0367 129.637 55.6564C129.776 56.276 130.155 56.8149 130.689 57.1545C131.224 57.4941 131.871 57.6065 132.489 57.4671L163.413 50.4832C163.719 50.4141 164.008 50.2853 164.264 50.1041C164.52 49.923 164.738 49.6929 164.906 49.4271C165.073 49.1614 165.187 48.8651 165.241 48.5552C165.294 48.2453 165.286 47.9279 165.217 47.6211C165.149 47.3143 165.02 47.0241 164.84 46.767C164.659 46.51 164.43 46.2911 164.165 46.123C163.901 45.9548 163.605 45.8407 163.297 45.787C162.988 45.7334 162.672 45.7413 162.366 45.8104Z" fill="#E6E6E6"/>
<path d="M4.7401 147.465C4.06412 147.466 3.41604 147.735 2.93805 148.215C2.46006 148.695 2.19119 149.346 2.19043 150.024V414.668C2.19117 415.347 2.46004 415.997 2.93802 416.477C3.416 416.957 4.06407 417.227 4.7401 417.228H335.293C335.969 417.227 336.617 416.957 337.095 416.477C337.573 415.997 337.841 415.346 337.842 414.668V192.505C337.841 191.827 337.573 191.176 337.095 190.696C336.617 190.216 335.969 189.946 335.293 189.945H145.577C143.651 189.947 141.794 189.227 140.37 187.926L97.7189 149.025C96.6187 148.02 95.1842 147.464 93.6966 147.465H4.7401Z" fill="#3F3D56"/>
<path d="M399.225 78.2451L222.232 1.86351C217.486 -0.177982 212.128 -0.246554 207.332 1.67282C202.536 3.59219 198.694 7.34277 196.649 12.1018L103.906 228.646L311.863 318.39C313.568 319.132 315.45 319.366 317.284 319.063L409.425 103.925C411.458 99.1616 411.527 93.7826 409.614 88.9683C407.702 84.154 403.966 80.2977 399.225 78.2451Z" fill="#E6E6E6"/>
<path d="M325.433 63.6548L228.437 21.7957C224.116 19.936 219.236 19.8725 214.868 21.6191C210.501 23.3658 207.002 26.78 205.139 31.1129L117.942 234.706L302.638 314.412L366.139 166.144C374.255 147.132 374.528 125.664 366.897 106.45C359.266 87.2369 344.354 71.8462 325.433 63.6548Z" fill="white"/>
<path d="M278.916 282.751L157.152 230.203C156.63 229.977 156.07 229.856 155.502 229.848C154.934 229.84 154.37 229.944 153.842 230.155C153.315 230.365 152.834 230.678 152.427 231.076C152.02 231.473 151.695 231.948 151.47 232.471C151.246 232.995 151.127 233.558 151.12 234.128C151.112 234.698 151.217 235.264 151.428 235.793C151.638 236.322 151.951 236.805 152.348 237.213C152.744 237.621 153.217 237.946 153.739 238.17L275.503 290.718C276.025 290.944 276.585 291.065 277.153 291.073C277.721 291.081 278.285 290.977 278.813 290.766C279.34 290.556 279.821 290.243 280.228 289.845C280.635 289.448 280.96 288.973 281.185 288.45C281.409 287.926 281.528 287.363 281.535 286.793C281.543 286.223 281.438 285.657 281.227 285.128C281.017 284.599 280.704 284.116 280.307 283.708C279.911 283.3 279.438 282.975 278.916 282.751Z" fill="#E4E4E4"/>
<path d="M285.664 266.992L163.9 214.444C162.846 213.99 161.656 213.974 160.591 214.401C159.526 214.827 158.674 215.661 158.221 216.718C157.768 217.775 157.752 218.97 158.176 220.039C158.601 221.108 159.431 221.965 160.484 222.42L282.248 274.967C282.77 275.192 283.33 275.312 283.898 275.32C284.466 275.327 285.03 275.223 285.557 275.011C286.085 274.8 286.566 274.487 286.973 274.089C287.379 273.692 287.704 273.217 287.929 272.694C288.153 272.17 288.272 271.607 288.28 271.037C288.287 270.467 288.183 269.901 287.973 269.372C287.762 268.842 287.45 268.36 287.054 267.951C286.658 267.543 286.186 267.217 285.664 266.992H285.664Z" fill="#E4E4E4"/>
<path d="M223.427 221.478L170.644 198.7C170.122 198.474 169.562 198.354 168.994 198.346C168.427 198.338 167.863 198.443 167.336 198.653C166.809 198.864 166.328 199.177 165.921 199.575C165.514 199.972 165.19 200.446 164.965 200.969C164.741 201.493 164.622 202.055 164.615 202.625C164.607 203.195 164.712 203.76 164.922 204.29C165.133 204.819 165.445 205.301 165.841 205.709C166.237 206.117 166.71 206.443 167.231 206.667L220.014 229.446C220.535 229.671 221.096 229.791 221.663 229.799C222.231 229.807 222.795 229.703 223.322 229.492C223.849 229.281 224.33 228.968 224.737 228.571C225.144 228.174 225.468 227.7 225.692 227.176C225.917 226.653 226.036 226.09 226.043 225.52C226.051 224.951 225.946 224.385 225.736 223.856C225.525 223.327 225.213 222.844 224.817 222.436C224.421 222.028 223.948 221.703 223.427 221.478Z" fill="#E4E4E4"/>
<path d="M306.539 218.254L184.775 165.706C183.721 165.253 182.532 165.238 181.468 165.665C180.403 166.092 179.551 166.925 179.099 167.982C178.646 169.039 178.63 170.233 179.054 171.301C179.477 172.37 180.307 173.227 181.359 173.682L303.123 226.23C303.645 226.456 304.206 226.576 304.774 226.585C305.343 226.593 305.907 226.488 306.435 226.277C306.963 226.067 307.445 225.753 307.852 225.355C308.26 224.957 308.585 224.483 308.809 223.959C309.034 223.434 309.153 222.871 309.161 222.301C309.168 221.73 309.063 221.164 308.852 220.634C308.642 220.104 308.329 219.621 307.932 219.213C307.535 218.804 307.061 218.479 306.539 218.254Z" fill="#E4E4E4"/>
<path d="M313.283 202.506L191.519 149.959C190.997 149.733 190.437 149.612 189.869 149.604C189.301 149.596 188.737 149.7 188.21 149.911C187.682 150.121 187.201 150.434 186.794 150.832C186.387 151.229 186.062 151.703 185.838 152.227C185.613 152.751 185.494 153.314 185.487 153.884C185.479 154.454 185.584 155.02 185.795 155.549C186.006 156.078 186.318 156.561 186.715 156.969C187.111 157.377 187.584 157.702 188.106 157.926L309.871 210.474C310.392 210.7 310.953 210.82 311.52 210.829C312.088 210.837 312.652 210.733 313.18 210.522C313.707 210.311 314.189 209.998 314.596 209.601C315.003 209.203 315.328 208.729 315.552 208.206C315.776 207.682 315.895 207.119 315.903 206.549C315.91 205.979 315.805 205.413 315.595 204.884C315.384 204.354 315.071 203.872 314.675 203.464C314.278 203.056 313.805 202.731 313.283 202.506Z" fill="#E4E4E4"/>
<path d="M251.049 156.982L198.266 134.204C197.212 133.75 196.022 133.734 194.957 134.161C193.892 134.587 193.04 135.421 192.587 136.478C192.134 137.535 192.118 138.73 192.542 139.799C192.967 140.868 193.797 141.724 194.85 142.179L247.633 164.958C248.155 165.183 248.715 165.303 249.283 165.311C249.851 165.319 250.415 165.214 250.943 165.003C251.471 164.792 251.952 164.479 252.359 164.081C252.766 163.683 253.091 163.209 253.315 162.685C253.539 162.161 253.659 161.598 253.666 161.028C253.674 160.458 253.569 159.892 253.359 159.362C253.148 158.833 252.836 158.35 252.44 157.942C252.043 157.533 251.571 157.207 251.049 156.982Z" fill="#E4E4E4"/>
<path d="M334.161 153.755L212.397 101.208C211.343 100.755 210.154 100.74 209.09 101.167C208.026 101.594 207.174 102.427 206.722 103.484C206.269 104.54 206.253 105.734 206.676 106.803C207.1 107.871 207.929 108.728 208.981 109.183L330.745 161.731C331.267 161.956 331.828 162.076 332.396 162.084C332.963 162.092 333.527 161.987 334.055 161.776C334.583 161.565 335.064 161.252 335.471 160.854C335.878 160.456 336.203 159.982 336.427 159.458C336.651 158.934 336.771 158.371 336.778 157.801C336.786 157.231 336.681 156.665 336.471 156.136C336.26 155.606 335.948 155.123 335.552 154.715C335.155 154.306 334.683 153.98 334.161 153.755Z" fill="#1982C4"/>
<path d="M340.904 138.01L219.14 85.4623C218.087 85.0091 216.897 84.9942 215.833 85.4209C214.769 85.8475 213.917 86.6807 213.464 87.7376C213.011 88.7945 212.995 89.9885 213.419 91.0573C213.843 92.1262 214.672 92.9824 215.724 93.4379L337.488 145.985C338.01 146.213 338.572 146.334 339.141 146.343C339.71 146.352 340.275 146.248 340.803 146.037C341.332 145.826 341.814 145.513 342.222 145.115C342.63 144.717 342.956 144.242 343.181 143.717C343.405 143.192 343.525 142.628 343.532 142.057C343.539 141.486 343.434 140.919 343.222 140.389C343.011 139.859 342.697 139.376 342.3 138.968C341.902 138.559 341.428 138.234 340.904 138.01Z" fill="#1982C4"/>
<path d="M278.672 92.4882L225.889 69.7096C224.835 69.2555 223.645 69.2399 222.58 69.6664C221.515 70.0928 220.663 70.9264 220.21 71.9837C219.757 73.0411 219.741 74.2357 220.166 75.3048C220.59 76.374 221.42 77.2302 222.473 77.6852L275.256 100.464C275.778 100.689 276.339 100.809 276.907 100.817C277.474 100.825 278.038 100.72 278.566 100.509C279.094 100.298 279.575 99.9846 279.982 99.5869C280.389 99.1892 280.714 98.7148 280.938 98.191C281.162 97.6672 281.282 97.1041 281.289 96.534C281.297 95.9639 281.192 95.3979 280.982 94.8683C280.771 94.3387 280.459 93.8559 280.063 93.4475C279.666 93.0391 279.194 92.7131 278.672 92.4881V92.4882Z" fill="#1982C4"/>
<path d="M147.264 156.897L43.5652 180.316C40.7869 180.947 38.3712 182.658 36.8482 185.075C35.3252 187.491 34.8192 190.415 35.4413 193.206L63.8765 320.077L185.716 292.561C186.717 292.338 187.633 291.831 188.355 291.099L160.104 165.052C159.476 162.263 157.771 159.838 155.364 158.31C152.957 156.781 150.044 156.273 147.264 156.897Z" fill="#E6E6E6"/>
<path d="M109.595 174.368L52.7652 187.202C50.2352 187.776 48.0353 189.334 46.6479 191.534C45.2605 193.734 44.7991 196.397 45.3647 198.938L72.0992 318.221L180.31 293.783L160.841 206.914C158.333 195.784 151.529 186.106 141.922 180.005C132.315 173.903 120.689 171.876 109.595 174.368Z" fill="white"/>
<path d="M159.5 287.351L88.1596 303.462C87.8537 303.53 87.5643 303.659 87.3079 303.84C87.0515 304.021 86.8332 304.25 86.6654 304.516C86.4976 304.782 86.3836 305.078 86.33 305.388C86.2764 305.698 86.2843 306.015 86.353 306.322C86.4218 306.629 86.5502 306.919 86.7309 307.176C86.9116 307.433 87.1409 307.652 87.4059 307.82C87.6709 307.988 87.9662 308.102 88.2751 308.155C88.5839 308.208 88.9002 308.2 89.2058 308.13L160.546 292.019C160.852 291.951 161.142 291.822 161.399 291.642C161.655 291.461 161.874 291.231 162.042 290.965C162.21 290.7 162.324 290.403 162.378 290.093C162.431 289.783 162.424 289.465 162.355 289.158C162.286 288.851 162.157 288.561 161.977 288.304C161.796 288.047 161.566 287.828 161.301 287.66C161.036 287.492 160.74 287.378 160.431 287.325C160.122 287.272 159.806 287.281 159.5 287.351Z" fill="#E4E4E4"/>
<path d="M157.432 278.123L86.0916 294.234C85.4743 294.374 84.9374 294.753 84.5991 295.29C84.2608 295.827 84.1488 296.476 84.2877 297.096C84.4266 297.716 84.805 298.255 85.3397 298.594C85.8744 298.934 86.5216 299.046 87.1389 298.907L158.479 282.796C159.097 282.656 159.634 282.276 159.972 281.74C160.31 281.203 160.422 280.553 160.283 279.934C160.144 279.314 159.766 278.775 159.231 278.435C158.697 278.096 158.049 277.983 157.432 278.123Z" fill="#E4E4E4"/>
<path d="M114.947 278.021L84.0223 285.005C83.7169 285.074 83.4281 285.202 83.1723 285.383C82.9165 285.564 82.6987 285.794 82.5314 286.06C82.364 286.325 82.2504 286.621 82.197 286.931C82.1436 287.24 82.1515 287.557 82.2202 287.864C82.2889 288.17 82.4171 288.46 82.5974 288.717C82.7777 288.974 83.0067 289.192 83.2712 289.36C83.5356 289.528 83.8305 289.642 84.1389 289.696C84.4473 289.75 84.7632 289.742 85.0685 289.673L115.993 282.689C116.3 282.621 116.589 282.492 116.846 282.312C117.102 282.131 117.321 281.901 117.489 281.635C117.657 281.369 117.771 281.073 117.825 280.763C117.879 280.453 117.871 280.135 117.802 279.828C117.733 279.521 117.605 279.231 117.424 278.974C117.243 278.717 117.013 278.498 116.748 278.33C116.483 278.162 116.187 278.048 115.878 277.995C115.569 277.942 115.253 277.951 114.947 278.021Z" fill="#E4E4E4"/>
<path d="M151.032 249.564L79.6912 265.675C79.3855 265.744 79.0964 265.873 78.8403 266.054C78.5843 266.236 78.3662 266.466 78.1987 266.731C77.8604 267.268 77.7484 267.918 77.8873 268.538C78.0262 269.157 78.4046 269.696 78.9393 270.036C79.474 270.375 80.1212 270.488 80.7385 270.348L152.079 254.237C152.696 254.098 153.233 253.718 153.571 253.181C153.91 252.644 154.022 251.995 153.883 251.375C153.744 250.755 153.366 250.216 152.831 249.877C152.296 249.537 151.649 249.425 151.032 249.564Z" fill="#E4E4E4"/>
<path d="M148.965 240.336L77.6244 256.447C77.3186 256.516 77.0292 256.644 76.7728 256.825C76.5164 257.006 76.298 257.236 76.1302 257.501C75.9624 257.767 75.8485 258.063 75.7949 258.373C75.7413 258.683 75.7491 259.001 75.8179 259.308C75.8867 259.614 76.0151 259.905 76.1957 260.162C76.3764 260.419 76.6058 260.637 76.8708 260.805C77.1357 260.973 77.4311 261.087 77.74 261.14C78.0488 261.193 78.3651 261.185 78.6707 261.115L150.011 245.004C150.317 244.936 150.606 244.807 150.862 244.626C151.118 244.445 151.336 244.215 151.504 243.95C151.671 243.684 151.785 243.388 151.839 243.078C151.892 242.769 151.884 242.451 151.815 242.145C151.747 241.838 151.618 241.548 151.438 241.291C151.257 241.034 151.028 240.815 150.764 240.647C150.499 240.479 150.204 240.366 149.895 240.312C149.586 240.259 149.27 240.267 148.965 240.336Z" fill="#E4E4E4"/>
<path d="M106.478 240.234L75.5535 247.218C74.9362 247.358 74.3993 247.737 74.061 248.274C73.7227 248.811 73.6107 249.461 73.7496 250.08C73.8885 250.7 74.2669 251.239 74.8016 251.578C75.3363 251.918 75.9835 252.03 76.6008 251.891L107.526 244.907C108.143 244.768 108.68 244.388 109.018 243.851C109.357 243.314 109.469 242.665 109.33 242.045C109.191 241.425 108.812 240.886 108.278 240.547C107.743 240.207 107.096 240.095 106.478 240.234Z" fill="#E4E4E4"/>
<path d="M142.562 211.779L71.2214 227.89C70.9158 227.959 70.6267 228.088 70.3706 228.269C70.1145 228.451 69.8965 228.681 69.729 228.946C69.3907 229.483 69.2787 230.133 69.4176 230.752C69.5565 231.372 69.9349 231.911 70.4696 232.251C71.0043 232.59 71.6515 232.703 72.2688 232.563L143.609 216.452C143.915 216.383 144.204 216.254 144.46 216.073C144.716 215.892 144.934 215.662 145.102 215.396C145.269 215.13 145.383 214.834 145.436 214.524C145.49 214.214 145.482 213.897 145.413 213.59C145.344 213.283 145.216 212.993 145.036 212.736C144.855 212.479 144.626 212.26 144.361 212.092C144.096 211.924 143.801 211.809 143.492 211.756C143.184 211.702 142.868 211.71 142.562 211.779H142.562Z" fill="#E6E6E6"/>
<path d="M140.495 202.551L69.1541 218.662C68.8484 218.731 68.5593 218.86 68.3032 219.041C68.0471 219.222 67.8291 219.452 67.6616 219.718C67.3233 220.255 67.2113 220.904 67.3502 221.524C67.4891 222.144 67.8675 222.682 68.4022 223.022C68.9369 223.362 69.5841 223.474 70.2014 223.335L141.542 207.223C142.159 207.084 142.696 206.704 143.034 206.167C143.373 205.631 143.485 204.981 143.346 204.361C143.207 203.742 142.828 203.203 142.294 202.863C141.759 202.524 141.112 202.411 140.495 202.551H140.495Z" fill="#E6E6E6"/>
<path d="M98.0097 202.443L67.0847 209.427C66.4674 209.567 65.9306 209.946 65.5923 210.483C65.254 211.02 65.142 211.67 65.2808 212.289C65.4197 212.909 65.7982 213.448 66.3329 213.787C66.8676 214.127 67.5148 214.239 68.1321 214.1L99.057 207.116C99.3627 207.047 99.6518 206.918 99.9079 206.737C100.164 206.556 100.382 206.326 100.549 206.06C100.717 205.794 100.831 205.498 100.884 205.188C100.938 204.878 100.93 204.561 100.861 204.254C100.792 203.947 100.664 203.657 100.483 203.4C100.303 203.143 100.074 202.924 99.8089 202.756C99.5441 202.588 99.249 202.473 98.9403 202.42C98.6316 202.366 98.3153 202.374 98.0097 202.443Z" fill="#E6E6E6"/>
<path d="M2.5498 216.977C2.21502 216.977 1.8835 217.043 1.57417 217.171C1.26485 217.3 0.983769 217.488 0.746999 217.726C0.510229 217.963 0.322393 218.245 0.194222 218.556C0.0660523 218.866 5.67236e-05 219.199 0 219.535C0 219.631 0.0784799 416.727 0.0784799 416.727C0.148301 417.352 0.445333 417.93 0.912783 418.349C1.38023 418.769 1.98529 419 2.6122 419H357.697C358.324 419 358.929 418.769 359.396 418.349C359.864 417.93 360.161 417.352 360.231 416.727L382.333 219.822C382.373 219.464 382.337 219.102 382.229 218.759C382.12 218.415 381.94 218.099 381.701 217.83C381.463 217.56 381.17 217.344 380.842 217.197C380.514 217.05 380.159 216.975 379.8 216.977L2.5498 216.977Z" fill="#3F3D56"/>
<path d="M27.6071 227.885C24.0047 227.895 20.551 229.328 17.9926 231.874C15.4341 234.42 13.9764 237.874 13.9346 241.49L14.378 394.24C14.3622 396.053 14.7042 397.85 15.3842 399.529C16.0643 401.208 17.0689 402.736 18.3402 404.023C19.6114 405.31 21.124 406.332 22.7908 407.029C24.4575 407.726 26.2453 408.085 28.051 408.085H253.456C279.308 408.102 304.259 398.551 323.536 381.259C342.812 363.967 355.06 340.148 357.938 314.359L365.931 243.147C366.147 241.227 365.956 239.283 365.372 237.442C364.787 235.601 363.822 233.905 362.54 232.464C361.257 231.024 359.686 229.871 357.929 229.082C356.172 228.293 354.269 227.885 352.344 227.885H27.6071ZM373.028 227.885L372.988 227H373.028V227.885Z" fill="#1982C4"/>
<path d="M126.066 342.326H38.7468C37.8445 342.326 36.9792 341.967 36.3412 341.326C35.7031 340.686 35.3447 339.817 35.3447 338.911C35.3447 338.006 35.7031 337.137 36.3412 336.497C36.9792 335.856 37.8445 335.496 38.7468 335.496H126.066C130.453 335.435 130.497 342.389 126.066 342.326Z" fill="#E4E4E4"/>
<path d="M243.695 360.188H38.7468C37.8445 360.188 36.9792 359.828 36.3412 359.188C35.7031 358.547 35.3447 357.679 35.3447 356.773C35.3447 355.867 35.7031 354.998 36.3412 354.358C36.9792 353.718 37.8445 353.358 38.7468 353.358H243.695C248.082 353.296 248.126 360.25 243.695 360.188Z" fill="#E4E4E4"/>
</svg>
