<svg width="394" height="419" viewBox="0 0 394 419" fill="none" xmlns="http://www.w3.org/2000/svg">
<path d="M197.825 418.994C191.364 418.973 184.931 418.137 178.677 416.506L177.444 416.163L176.301 415.587C134.961 394.761 100.084 367.252 72.6403 333.824C49.9223 305.991 32.2104 274.389 20.301 240.44C6.0591 199.794 -0.79263 156.907 0.072856 113.824C0.0903198 112.92 0.1051 112.222 0.1051 111.741C0.1051 90.798 11.6744 72.4224 29.5791 64.9262C43.2826 59.189 167.703 7.83942 176.693 4.12927C193.623 -4.39444 211.684 2.71994 214.574 3.96405C221.058 6.62741 336.077 53.8973 360.932 65.7896C386.548 78.0463 393.383 100.065 393.383 111.143C393.383 161.296 384.739 208.168 367.689 250.458C353.921 284.688 334.406 316.289 309.995 343.884C262.897 397.14 215.787 416.019 215.332 416.186C209.702 418.132 203.778 419.083 197.825 418.994ZM186.746 391.42C190.83 392.34 200.234 393.72 206.363 391.474C214.149 388.621 253.579 368.076 290.426 326.412C341.335 268.846 367.166 196.482 367.204 111.328C367.113 109.603 365.894 97.2981 349.677 89.5392C325.304 77.877 205.751 28.7576 204.546 28.2625L204.216 28.1218C201.71 27.0669 193.737 24.8448 188.241 27.7388L187.14 28.2544C185.808 28.8043 53.7339 83.31 39.6481 89.2071C29.7947 93.3324 26.284 103.552 26.284 111.741C26.284 112.339 26.2686 113.21 26.2468 114.335C25.121 172.6 38.5396 315.973 186.746 391.42Z" fill="#3F3D56"/>
<path d="M182.168 16.0887C182.168 16.0887 48.8942 71.0889 34.6148 77.0672C20.3354 83.0455 13.1957 97.3933 13.1957 111.741C13.1957 126.089 2.48619 313.31 182.168 403.83C182.168 403.83 198.476 408.364 210.849 403.83C223.222 399.296 380.295 322.774 380.295 111.143C380.295 111.143 380.295 89.6216 355.306 77.665C330.317 65.7085 209.5 16.0887 209.5 16.0887C209.5 16.0887 194.663 9.51262 182.168 16.0887Z" fill="#1982C4"/>
<path opacity="0.1" d="M196.446 59.1309V352.537C196.446 352.537 61.982 287.501 63.1719 116.522L196.446 59.1309Z" fill="black"/>
<path d="M198.201 270.006L155.367 214.667L180.277 195.201L200.558 221.402L269.073 148.729L291.985 170.54L198.201 270.006Z" fill="white"/>
</svg>
